<?xml version="1.0" standalone="no"?><!DOCTYPE svg PUBLIC "-//W3C//DTD SVG 1.1//EN" "http://www.w3.org/Graphics/SVG/1.1/DTD/svg11.dtd"><svg t="1702276328408" class="icon" viewBox="0 0 1024 1024" version="1.1" xmlns="http://www.w3.org/2000/svg" p-id="28175" xmlns:xlink="http://www.w3.org/1999/xlink" width="200" height="200"><path d="M405.333333 917.333333H192c-46.933333 0-85.333333-38.4-85.333333-85.333333V192c0-46.933333 38.4-85.333333 85.333333-85.333333h640c46.933333 0 85.333333 38.4 85.333333 85.333333v213.333333c0 12.8-8.533333 21.333333-21.333333 21.333334s-21.333333-8.533333-21.333333-21.333334V192c0-23.466667-19.2-42.666667-42.666667-42.666667H192c-23.466667 0-42.666667 19.2-42.666667 42.666667v640c0 23.466667 19.2 42.666667 42.666667 42.666667h213.333333c12.8 0 21.333333 8.533333 21.333334 21.333333s-8.533333 21.333333-21.333334 21.333333zM874.666667 917.333333H618.666667c-12.8 0-21.333333-8.533333-21.333334-21.333333s8.533333-21.333333 21.333334-21.333333h256V618.666667c0-12.8 8.533333-21.333333 21.333333-21.333334s21.333333 8.533333 21.333333 21.333334v256c0 23.466667-19.2 42.666667-42.666666 42.666666z" fill="#333333" p-id="28176"></path><path d="M896 640H384c-12.8 0-21.333333-8.533333-21.333333-21.333333s8.533333-21.333333 21.333333-21.333334h512c12.8 0 21.333333 8.533333 21.333333 21.333334s-8.533333 21.333333-21.333333 21.333333z" fill="#333333" p-id="28177"></path><path d="M490.666667 768c-6.4 0-10.666667-2.133333-14.933334-6.4l-128-128c-8.533333-8.533333-8.533333-21.333333 0-29.866667l128-128c8.533333-8.533333 21.333333-8.533333 29.866667 0s8.533333 21.333333 0 29.866667L392.533333 618.666667l113.066667 113.066666c8.533333 8.533333 8.533333 21.333333 0 29.866667-4.266667 4.266667-8.533333 6.4-14.933333 6.4z" fill="#333333" p-id="28178"></path></svg>