<?xml version="1.0" standalone="no"?><!DOCTYPE svg PUBLIC "-//W3C//DTD SVG 1.1//EN" "http://www.w3.org/Graphics/SVG/1.1/DTD/svg11.dtd"><svg t="1702276264175" class="icon" viewBox="0 0 1024 1024" version="1.1" xmlns="http://www.w3.org/2000/svg" p-id="26263" xmlns:xlink="http://www.w3.org/1999/xlink" width="200" height="200"><path d="M512 960c247.424 0 448-200.512 448-448S759.424 64 512 64C264.576 64 64 264.576 64 512S264.576 960 512 960zM374.464 494.336c15.68-15.232 41.152-15.232 56.832 0l56.832 55.296 142.016-138.24c15.68-15.232 41.152-15.232 56.832 0 15.744 15.296 15.68 40.064 0 55.296L516.416 632.64c-15.68 15.232-41.152 15.232-56.832 0L374.464 549.632C358.72 534.4 358.72 509.568 374.464 494.336z" fill="#00CF35" p-id="26264"></path></svg>