<?xml version="1.0" standalone="no"?><!DOCTYPE svg PUBLIC "-//W3C//DTD SVG 1.1//EN" "http://www.w3.org/Graphics/SVG/1.1/DTD/svg11.dtd"><svg t="1702276374909" class="icon" viewBox="0 0 1024 1024" version="1.1" xmlns="http://www.w3.org/2000/svg" p-id="29169" xmlns:xlink="http://www.w3.org/1999/xlink" width="200" height="200"><path d="M884.826 117.236c-61.45-61.45-143.142-95.288-230.032-95.288-86.866 0-168.536 33.828-229.96 95.254-126.81 126.812-126.794 333.164 0.034 459.996 61.412 61.414 143.086 95.238 229.978 95.246h0.03c86.866 0 168.532-33.826 229.952-95.248 61.432-61.432 95.264-143.112 95.258-229.992-0.004-86.872-33.836-168.544-95.26-229.968z m-9.178 450.78c-58.972 58.972-137.368 91.446-220.772 91.444h-0.026c-83.426-0.008-161.842-32.482-220.802-91.442-121.766-121.77-121.78-319.886-0.034-441.636 58.972-58.972 137.382-91.452 220.782-91.452 83.422 0 161.856 32.49 220.854 91.484 58.972 58.972 91.45 137.384 91.456 220.788 0 83.414-32.478 161.834-91.458 220.814z" fill="#4B555F" p-id="29170"></path><path d="M810.074 191.99c-41.472-41.472-96.598-64.312-155.224-64.312-58.63 0-113.756 22.84-155.228 64.312-41.458 41.46-64.296 96.582-64.3 155.214-0.006 58.64 22.83 113.774 64.3 155.242 41.446 41.444 96.552 64.27 155.178 64.27 58.644 0 113.774-22.836 155.242-64.304 41.472-41.47 64.31-96.596 64.318-155.224 0.002-58.626-22.828-113.742-64.286-155.198z m-9.214 301.242c-39.016 39.014-90.888 60.5-146.062 60.5-55.156 0-107.004-21.474-145.998-60.466-39.016-39.016-60.502-90.888-60.496-146.06 0.004-55.164 21.488-107.028 60.496-146.036 39.02-39.018 90.888-60.508 146.05-60.508 55.156 0 107.024 21.49 146.044 60.508 39.004 39.004 60.486 90.862 60.482 146.018-0.008 55.158-21.5 107.024-60.516 146.044z" fill="#4B555F" p-id="29171"></path><path d="M680.56 173.182l-139.61 308.128A175.46 175.46 0 0 0 614 518.354l142.552-314.706c-23.022-16.402-49.162-26.528-75.992-30.466z m-150.082 49.638c-56.346 56.346-66.516 141.384-30.424 208.074l115.634-255.2c-31.246 7.096-60.89 22.804-85.21 47.126z m292.244 71.666L725.956 508.14c19.302-8.524 37.434-20.73 53.274-36.568 47.95-47.95 62.448-116.63 43.492-177.086z" fill="#DFDFDE" p-id="29172"></path><path d="M864.938 137.128c-56.136-56.136-130.764-87.052-210.14-87.052-79.356 0-153.96 30.904-210.074 87.018-56.122 56.12-87.024 130.738-87.016 210.104 0.008 79.364 30.922 153.982 87.05 210.108 56.108 56.106 130.716 87.006 210.09 87.006 79.372 0 153.982-30.9 210.088-87.006 56.12-56.12 87.022-130.736 87.022-210.1-0.004-79.36-30.91-153.966-87.02-210.078z m-44.186 375.994c-44.324 44.326-103.264 68.74-165.954 68.74-62.67 0-121.584-24.4-165.888-68.704-44.332-44.33-68.742-103.268-68.738-165.954 0.004-62.678 24.416-121.604 68.738-165.926 44.334-44.332 103.264-68.748 165.938-68.748 62.674 0 121.604 24.416 165.938 68.748 91.48 91.478 91.464 240.342-0.034 331.844z" fill="#71CBDF" p-id="29173"></path><path d="M434.03 568c-12.42-12.42-28.938-19.26-46.502-19.26-17.566 0-34.082 6.84-46.504 19.26l-53.018 53.02 93.004 93.006 53.02-53.02c25.642-25.64 25.642-67.364 0-93.006z m-9.18 83.826l-43.84 43.84-74.646-74.648 43.838-43.84c9.97-9.968 23.226-15.458 37.324-15.458s27.354 5.49 37.324 15.458c20.58 20.582 20.58 54.068 0 74.648z" fill="#4B555F" p-id="29174"></path><path d="M414.14 587.892a37.392 37.392 0 0 0-26.612-11.024 37.38 37.38 0 0 0-26.612 11.024l-33.13 33.128 53.224 53.226 33.13-33.126c14.674-14.678 14.674-38.556 0-53.228z" fill="#FFD351" p-id="29175"></path><path d="M297.186 611.84L59.422 849.602l93.006 93.004 237.76-237.76-93.002-93.006zM77.784 849.602L297.186 630.2l74.646 74.646L152.43 924.248l-74.646-74.646z" fill="#4B555F" p-id="29176"></path><path d="M99.196 849.6l197.98-197.98 53.224 53.226-197.98 197.978z" fill="#F58E70" p-id="29177"></path><path d="M68.602 840.422L31.904 877.12l93.006 93.008 36.698-36.702-93.006-93.004z m-18.34 36.7l18.34-18.34 74.648 74.646-18.34 18.34-74.648-74.646z" fill="#4B555F" p-id="29178"></path><path d="M41.084 867.942L12.676 896.348c-16.902 16.902-16.902 44.404 0 61.308l31.698 31.696a43.062 43.062 0 0 0 30.654 12.7 43.06 43.06 0 0 0 30.652-12.7l28.408-28.404-93.004-93.006z m55.42 112.23a30.17 30.17 0 0 1-21.474 8.896 30.17 30.17 0 0 1-21.476-8.896l-31.698-31.696c-11.84-11.842-11.84-31.108 0-42.95l19.228-19.228 74.646 74.648-19.226 19.226z" fill="#4B555F" p-id="29179"></path><path d="M41.082 907.722l-8.514 8.516c-5.936 5.936-5.936 15.594 0 21.528l31.694 31.698c2.876 2.876 6.702 4.458 10.766 4.458s7.89-1.582 10.764-4.456l8.516-8.518-53.226-53.226z" fill="#FFD351" p-id="29180"></path><path d="M580.354 710.452c4.206 0.776 8.546 1.506 13.018 2.186l1.944-12.836a401.772 401.772 0 0 1-12.602-2.118l-2.36 12.768z m26.088 3.954c4.276 0.51 8.65 0.964 13.126 1.35l1.116-12.936a397.956 397.956 0 0 1-12.712-1.304l-1.53 12.89z m-51.868-9.564c4.074 1.024 8.364 2.038 12.852 3.012l2.756-12.688a397.356 397.356 0 0 1-12.446-2.914l-3.162 12.59z m-25.4-7.294c3.824 1.244 8.052 2.548 12.648 3.864l3.576-12.48a352.588 352.588 0 0 1-12.202-3.73l-4.022 12.346z m103.564 19.124c4.324 0.228 8.722 0.394 13.19 0.482l0.262-12.978c-4.324-0.088-8.58-0.246-12.768-0.47l-0.684 12.966z m-128.616-28.524c0.182 0.084 4.572 2.102 12.53 5.052l4.514-12.176c-7.434-2.75-11.564-4.646-11.606-4.666l-5.438 11.79z m313.736-24.624a333.608 333.608 0 0 1-11.314 5.828l5.722 11.652c3.922-1.924 7.844-3.94 11.762-6.056l-6.17-11.424z m-158.914 40.688l0.186 12.982a380.92 380.92 0 0 0 13.198-0.416l-0.634-12.966c-4.298 0.21-8.548 0.34-12.75 0.4z m100.36-15.92l3.904 12.382a351.04 351.04 0 0 0 12.536-4.216l-4.37-12.226c-4.036 1.444-8.06 2.796-12.07 4.06z m23.976-8.576l4.834 12.048a343.96 343.96 0 0 0 12.18-5.154l-5.292-11.858a327.88 327.88 0 0 1-11.722 4.964z m-48.542 15.314l2.966 12.64a365.9 365.9 0 0 0 12.814-3.256l-3.432-12.522c-4.132 1.134-8.254 2.18-12.348 3.138z m-50.314 7.938l1.09 12.936c4.34-0.366 8.722-0.812 13.148-1.344l-1.556-12.89a353.12 353.12 0 0 1-12.682 1.298z m25.31-3.05l2.02 12.826a354.5 354.5 0 0 0 13.026-2.298l-2.502-12.742c-4.204 0.826-8.394 1.562-12.544 2.214zM1010.122 390.218c-24.466 164.908-128.248 229.142-129.296 229.772l6.678 11.136c4.48-2.684 110.046-67.69 135.458-239.002l-12.84-1.906zM1023.01 326.596l-12.94 1.082c0.012 0.146 1.218 14.874 0.888 36.624l12.982 0.194c0.338-22.44-0.878-37.28-0.93-37.9z" fill="#4B555F" p-id="29181"></path></svg>