<?xml version="1.0" standalone="no"?><!DOCTYPE svg PUBLIC "-//W3C//DTD SVG 1.1//EN" "http://www.w3.org/Graphics/SVG/1.1/DTD/svg11.dtd"><svg t="1702275200382" class="icon" viewBox="0 0 1024 1024" version="1.1" xmlns="http://www.w3.org/2000/svg" p-id="15456" xmlns:xlink="http://www.w3.org/1999/xlink" width="200" height="200"><path d="M816.8534 485.223437a37.211319 37.211319 0 0 1 37.615555-37.237931c20.95188 0 38.159185 16.506543 38.159185 37.237931v367.292764c0 20.756731-17.207305 37.509111-38.159185 37.509111h-685.048157a37.422942 37.422942 0 0 1-37.614289-37.509111V485.223437a37.753681 37.753681 0 0 1 75.501026 0v329.759576h59.881522V468.742237a22.738631 22.738631 0 0 1 22.590369-22.894496h444.059721c12.621309 0 23.382369 10.391038 23.382369 22.893229v346.242043h59.631884V485.223437zM312.864002 731.935813h398.683835V674.999264H312.864002v56.936549z m398.683835 44.73215H312.864002v38.31505h398.683835v-38.317585zM312.864002 629.753898h398.683835v-56.96316H312.864002v56.96316z m0-101.643355h398.683835v-36.476343H312.864002v36.476343zM72.696712 473.556329c-17.728124 10.09578-41.358864 3.68375-51.575027-13.338544-10.76106-18.103215-4.834367-41.234678 13.43992-51.090957l458.295443-269.851443a37.993181 37.993181 0 0 1 38.705347 0l458.313184 269.851443c17.704047 9.849943 23.63074 32.987743 13.414576 51.090957a39.536631 39.536631 0 0 1-52.094579 13.338544L512.218592 215.127424 72.696712 473.556329z m458.316986-334.280944z" fill="#3B3F51" p-id="15457"></path></svg>