<?xml version="1.0" standalone="no"?><!DOCTYPE svg PUBLIC "-//W3C//DTD SVG 1.1//EN" "http://www.w3.org/Graphics/SVG/1.1/DTD/svg11.dtd"><svg t="1702275066604" class="icon" viewBox="0 0 1024 1024" version="1.1" xmlns="http://www.w3.org/2000/svg" p-id="12030" xmlns:xlink="http://www.w3.org/1999/xlink" width="200" height="200"><path d="M777.898 426.51c-40.402-40.402-94.124-62.654-151.274-62.654-57.142 0-110.872 22.248-151.294 62.65-83.404 83.436-83.404 219.166 0 302.564 40.422 40.422 94.152 62.684 151.302 62.686h0.004c57.136 0 110.862-22.262 151.26-62.68 83.402-83.394 83.402-219.126 0.002-302.566z m-10.63 291.938c-37.564 37.58-87.506 58.276-140.634 58.274-53.132-0.002-103.09-20.7-140.672-58.282-77.54-77.538-77.54-203.73 0-281.3 37.578-37.562 87.534-58.248 140.662-58.248 53.132 0 103.08 20.688 140.644 58.248 77.536 77.578 77.536 203.77 0 281.308z" fill="#4B555F" p-id="12031"></path><path d="M730.326 474.122c-27.706-27.708-64.536-42.968-103.706-42.968s-75.99 15.26-103.676 42.962c-27.708 27.688-42.968 64.508-42.968 103.678s15.26 76 42.962 103.704c27.692 27.708 64.512 42.968 103.682 42.968s76-15.258 103.706-42.966c57.156-57.192 57.156-150.222 0-207.378z m-10.63 196.75c-24.868 24.866-57.92 38.56-93.076 38.56-35.15 0-68.198-13.694-93.046-38.562-24.868-24.868-38.562-57.922-38.562-93.076 0-35.152 13.694-68.196 38.562-93.046 24.848-24.864 57.896-38.558 93.046-38.558s68.208 13.696 93.076 38.562c51.292 51.298 51.292 134.79 0 186.12z" fill="#4B555F" p-id="12032"></path><path d="M754.864 449.546c-34.25-34.25-79.792-53.112-128.236-53.112-48.444 0-94 18.862-128.26 53.104-70.698 70.734-70.704 185.8-0.004 256.5 34.27 34.268 79.826 53.142 128.27 53.142h0.004c48.434 0 93.976-18.872 128.226-53.138 70.702-70.698 70.698-185.764 0-256.496z m-12.138 244.362c-31.014 31.018-72.25 48.1-116.108 48.1-43.858 0-85.082-17.086-116.078-48.104-31.02-31.02-48.106-72.256-48.106-116.11 0-43.858 17.086-85.086 48.096-116.074 31-31.022 72.23-48.108 116.088-48.108 43.854 0 85.088 17.084 116.108 48.106 63.992 63.992 63.998 168.15 0 232.19z" fill="#71CBDF" p-id="12033"></path><path d="M841.544 718.454c-9.92-9.918-23.106-15.382-37.134-15.382-14.032 0-27.218 5.464-37.138 15.382-9.92 9.92-15.382 23.108-15.382 37.138 0 14.028 5.462 27.218 15.382 37.136l147.016 147.01 74.272-74.272-147.016-147.012z m-63.64 63.642a37.226 37.226 0 0 1-10.978-26.504c0-10.012 3.896-19.426 10.978-26.506a37.246 37.246 0 0 1 26.508-10.98c10.01 0 19.42 3.9 26.502 10.978l136.386 136.382-53.01 53.01-136.386-136.38z" fill="#4B555F" p-id="12034"></path><path d="M818.514 741.492a19.814 19.814 0 0 0-14.106-5.842 19.81 19.81 0 0 0-14.1 5.84 19.82 19.82 0 0 0-5.84 14.102 19.824 19.824 0 0 0 5.84 14.102l123.978 123.978 28.206-28.204-123.978-123.976z" fill="#F58E70" p-id="12035"></path><path d="M1015.822 892.764l-37.886-37.93-74.276 74.272 37.886 37.924a27.76 27.76 0 0 0 19.764 8.186c7.464 0 14.482-2.906 19.758-8.184l34.75-34.75a27.746 27.746 0 0 0 8.184-19.76 27.76 27.76 0 0 0-8.18-19.758z m-10.636 28.888L970.436 956.4c-4.874 4.882-13.396 4.87-18.256 0.002l-27.262-27.292 53.006-53.01 27.262 27.29a12.826 12.826 0 0 1 3.778 9.13c0 3.45-1.34 6.692-3.778 9.132z" fill="#4B555F" p-id="12036"></path><path d="M977.932 900.906l-28.206 28.202 11.578 11.616 28.206-28.204z" fill="#FFD351" p-id="12037"></path><path d="M906.302 48.782H79.15C35.508 48.782 0 84.288 0 127.93v684.556c0 43.642 35.508 79.148 79.15 79.148h732.02v-15.036H79.15c-35.352 0-64.116-28.76-64.116-64.112V127.93c0-35.352 28.764-64.112 64.116-64.112H906.3c35.352 0 64.11 28.76 64.11 64.112v687.38h15.036V127.93c0.002-43.642-35.502-79.148-79.144-79.148z" fill="#4B555F" p-id="12038"></path><path d="M7.518 168.306h975.576v15.036H7.518z" fill="#4B555F" p-id="12039"></path><path d="M102.096 116.994m-28.462 0a28.462 28.462 0 1 0 56.924 0 28.462 28.462 0 1 0-56.924 0Z" fill="#F58E70" p-id="12040"></path><path d="M185.73 116.994m-28.462 0a28.462 28.462 0 1 0 56.924 0 28.462 28.462 0 1 0-56.924 0Z" fill="#F58E70" p-id="12041"></path><path d="M269.364 116.994m-28.462 0a28.462 28.462 0 1 0 56.924 0 28.462 28.462 0 1 0-56.924 0Z" fill="#F58E70" p-id="12042"></path><path d="M123.038 283.31v98.67h98.67v-98.67H123.038z m83.634 83.634H138.074v-68.598h68.598v68.598z" fill="#4B555F" p-id="12043"></path><path d="M155.616 315.888h33.516v33.516H155.616z" fill="#FFD351" p-id="12044"></path><path d="M123.038 467.334v98.67h98.67v-98.67H123.038z m83.634 83.634H138.074v-68.598h68.598v68.598z" fill="#4B555F" p-id="12045"></path><path d="M155.616 499.912h33.516v33.516H155.616z" fill="#FFD351" p-id="12046"></path><path d="M123.038 651.358v98.67h98.67v-98.67H123.038z m83.634 83.634H138.074v-68.598h68.598v68.598z" fill="#4B555F" p-id="12047"></path><path d="M155.616 683.934h33.516v33.516H155.616z" fill="#FFD351" p-id="12048"></path><path d="M297.824 303.354h546.706v15.036H297.824zM297.824 346.902h223.04v15.036h-223.04zM297.824 487.376h73.816v15.036h-73.816zM297.824 530.926h73.816v15.036h-73.816zM297.824 671.4h97.45v15.036h-97.45zM297.824 714.948h122.368v15.036h-122.368zM757.156 510.938l-2.1-4.086H498.248l-2.1 4.08a146.182 146.182 0 0 0 1.58 136.732l2.138 3.928h253.516l2.138-3.928a146.3 146.3 0 0 0 1.636-136.726z m-12.798 125.618H508.892a131.136 131.136 0 0 1-1.386-114.67h238.28a131.256 131.256 0 0 1-1.428 114.67z" fill="#4B555F" p-id="12049"></path><path d="M734.076 539.428H519.21a113.564 113.564 0 0 0 1.068 79.586h212.698a113.72 113.72 0 0 0 1.1-79.586z" fill="#FFD351" p-id="12050"></path><path d="M881.692 175.824h15.036v541.626h-15.036zM934.096 222.974c-13.914 0-25.236 11.322-25.236 25.238v158.864c0 13.916 11.32 25.236 25.236 25.236 13.92 0 25.24-11.32 25.24-25.236v-158.864c0-13.916-11.32-25.238-25.24-25.238z m10.204 184.102a10.214 10.214 0 0 1-10.204 10.202 10.212 10.212 0 0 1-10.2-10.202v-158.864a10.212 10.212 0 0 1 10.2-10.202 10.214 10.214 0 0 1 10.204 10.202v158.864z" fill="#4B555F" p-id="12051"></path></svg>