<?xml version="1.0" standaloneroom.svg="no"?><!DOCTYPE svg PUBLIC "-//W3C//DTD SVG 1.1//EN" "http://www.w3.org/Graphics/SVG/1.1/DTD/svg11.dtd"><svg t="1702276498783" class="icon" viewBox="0 0 1024 1024" version="1.1" xmlns="http://www.w3.org/2000/svg" p-id="32039" xmlns:xlink="http://www.w3.org/1999/xlink" width="200" height="200"><path d="M63.408145 63.408145l0 897.125381 488.087381 0 0 0.058328 56.078203 0 0-0.058328L960.591855 960.533526 960.591855 63.408145 63.408145 63.408145 63.408145 63.408145zM108.264772 108.264772l448.594925 0 0 583.172993L108.264772 691.437765 108.264772 108.264772 108.264772 108.264772zM108.264772 915.732158l0-179.436742 448.594925 0 0 179.436742L108.264772 915.732158 108.264772 915.732158 108.264772 915.732158zM915.734204 915.732158 601.717348 915.732158 601.717348 512.001023l314.016857 0L915.734204 915.732158 915.734204 915.732158 915.734204 915.732158zM601.717348 467.13928 601.717348 108.264772l314.016857 0 0 358.874507L601.717348 467.13928 601.717348 467.13928 601.717348 467.13928z" fill="#CCCCCC" p-id="32040"></path></svg>
