<?xml version="1.0" standalone="no"?><!DOCTYPE svg PUBLIC "-//W3C//DTD SVG 1.1//EN" "http://www.w3.org/Graphics/SVG/1.1/DTD/svg11.dtd"><svg t="1702274969453" class="icon" viewBox="0 0 1024 1024" version="1.1" xmlns="http://www.w3.org/2000/svg" p-id="8238" xmlns:xlink="http://www.w3.org/1999/xlink" width="200" height="200"><path d="M767.104 862.88h-95.68c-17.6 0-31.904-14.24-31.904-31.872V767.2c0-17.568 14.304-31.872 31.904-31.872H735.2V575.84H511.936v159.488h31.872c17.632 0 31.904 14.304 31.904 31.872v63.808c0 17.632-14.272 31.872-31.904 31.872h-95.68c-17.6 0-31.872-14.24-31.872-31.872V767.2c0-17.568 14.272-31.872 31.872-31.872h31.936V575.84H256.768v159.488h63.776c17.632 0 31.904 14.304 31.904 31.872v63.808c0 17.632-14.272 31.872-31.904 31.872h-95.648c-17.632 0-31.904-14.24-31.904-31.872V767.2c0-17.568 14.272-31.872 31.904-31.872v-191.36h255.168V416.384h-95.68c-17.632 0-31.904-14.272-31.904-31.904V224.992c0-17.6 14.272-31.904 31.904-31.904h223.264c17.632 0 31.872 14.272 31.872 31.904v159.456c0 17.6-14.24 31.904-31.872 31.904h-95.68v127.584h255.168v191.36c17.6 0 31.904 14.304 31.904 31.872v63.808c-0.032 17.664-14.368 31.904-31.936 31.904zM224.896 767.2v63.808h95.648V767.2h-95.648z m382.72-382.72V224.992H384.352v159.456h223.264zM448.128 767.2v63.808h95.68V767.2h-95.68z m318.976 0h-95.68v63.808h95.68V767.2z" p-id="8239"></path></svg>