<?xml version="1.0" standalone="no"?><!DOCTYPE svg PUBLIC "-//W3C//DTD SVG 1.1//EN" "http://www.w3.org/Graphics/SVG/1.1/DTD/svg11.dtd"><svg t="1655909613111" class="icon" viewBox="0 0 1024 1024" version="1.1" xmlns="http://www.w3.org/2000/svg" p-id="11223" xmlns:xlink="http://www.w3.org/1999/xlink" width="200" height="200"><defs><style type="text/css">@font-face { font-family: feedback-iconfont; src: url("//at.alicdn.com/t/font_1031158_u69w8yhxdu.woff2?t=1630033759944") format("woff2"), url("//at.alicdn.com/t/font_1031158_u69w8yhxdu.woff?t=1630033759944") format("woff"), url("//at.alicdn.com/t/font_1031158_u69w8yhxdu.ttf?t=1630033759944") format("truetype"); }
</style></defs><path d="M448.443475 67.101257l63.554478 0 0 63.558571-63.554478 0 0-63.558571Z" p-id="11224"></path><path d="M448.443475 448.441429 67.103304 448.441429 67.103304 512 130.657782 512 130.657782 575.558571 194.216353 575.558571 194.216353 512 257.770831 512 257.770831 575.558571 511.997953 575.558571 511.997953 512 448.443475 512Z" p-id="11225"></path><path d="M766.228145 575.558571 766.228145 448.441429 702.669574 448.441429 702.669574 575.558571 639.111003 575.558571 639.111003 512 575.556525 512 575.556525 639.113049 448.443475 639.113049 448.443475 766.226099 575.556525 766.226099 575.556525 702.671621 639.111003 702.671621 639.111003 639.113049 829.782623 639.113049 829.782623 575.558571Z" p-id="11226"></path><path d="M829.782623 448.441429 829.782623 512 893.341195 512 893.341195 575.558571 956.896696 575.558571 956.896696 512 956.896696 448.441429 893.341195 448.441429Z" p-id="11227"></path><path d="M829.782623 639.113049l127.113049 0 0 63.558571-127.113049 0 0-63.558571Z" p-id="11228"></path><path d="M448.443475 829.78467 448.443475 893.340171 448.443475 956.898743 511.997953 956.898743 511.997953 893.340171 575.556525 893.340171 639.111003 893.340171 639.111003 956.898743 702.669574 956.898743 702.669574 893.340171 702.669574 829.78467 766.228145 829.78467 766.228145 893.340171 766.228145 956.898743 893.341195 956.898743 956.896696 956.898743 956.896696 766.226099 893.341195 766.226099 893.341195 893.340171 829.782623 893.340171 829.782623 766.226099 766.228145 766.226099 766.228145 702.671621 702.669574 702.671621 702.669574 766.226099 575.556525 766.226099 575.556525 829.78467Z" p-id="11229"></path><path d="M384.884904 67.101257 67.103304 67.101257l0 317.785693 317.7816 0L384.884904 67.101257zM321.329403 321.328379 130.657782 321.328379 130.657782 130.659829l190.671621 0L321.329403 321.328379z" p-id="11230"></path><path d="M194.216353 194.214307l63.554478 0 0 63.558571-63.554478 0 0-63.558571Z" p-id="11231"></path><path d="M67.103304 956.898743l317.7816 0L384.884904 639.113049 67.103304 639.113049 67.103304 956.898743zM130.657782 702.671621l190.671621 0 0 190.668551L130.657782 893.340171 130.657782 702.671621z" p-id="11232"></path><path d="M194.216353 766.226099l63.554478 0 0 63.558571-63.554478 0 0-63.558571Z" p-id="11233"></path><path d="M639.111003 67.101257l0 317.785693 317.785693 0L956.896696 67.101257 639.111003 67.101257zM893.341195 321.328379 702.669574 321.328379 702.669574 130.659829l190.671621 0L893.341195 321.328379z" p-id="11234"></path><path d="M766.228145 194.214307l63.554478 0 0 63.558571-63.554478 0 0-63.558571Z" p-id="11235"></path><path d="M575.556525 384.886951 575.556525 321.328379 511.997953 321.328379 511.997953 257.772878 575.556525 257.772878 575.556525 130.659829 511.997953 130.659829 511.997953 194.214307 448.443475 194.214307 448.443475 384.886951 511.997953 384.886951 511.997953 448.441429 511.997953 512 575.556525 512 575.556525 448.441429Z" p-id="11236"></path></svg>