<?xml version="1.0" standalone="no"?><!DOCTYPE svg PUBLIC "-//W3C//DTD SVG 1.1//EN" "http://www.w3.org/Graphics/SVG/1.1/DTD/svg11.dtd"><svg t="1658149790463" class="icon" viewBox="0 0 1024 1024" version="1.1" xmlns="http://www.w3.org/2000/svg" p-id="2255" xmlns:xlink="http://www.w3.org/1999/xlink" width="200" height="200"><defs><style type="text/css">@font-face { font-family: feedback-iconfont; src: url("//at.alicdn.com/t/font_1031158_u69w8yhxdu.woff2?t=1630033759944") format("woff2"), url("//at.alicdn.com/t/font_1031158_u69w8yhxdu.woff?t=1630033759944") format("woff"), url("//at.alicdn.com/t/font_1031158_u69w8yhxdu.ttf?t=1630033759944") format("truetype"); }
</style></defs><path d="M691.1 148.9V98.2h-50.8V149H538.8V98.2H488V149H386.4V98.2h-50.8V149c-56.1 0-101.5 45.5-101.5 101.5V809c0 56.1 45.5 101.5 101.5 101.5H691c56.1 0 101.5-45.5 101.5-101.5V250.5c0.1-56.1-45.4-101.6-101.4-101.6z m-25.4 558.5H361.1c-14 0-25.4-11.4-25.4-25.4 0-14 11.4-25.4 25.4-25.4h304.6c14 0 25.4 11.4 25.4 25.4 0 14-11.4 25.4-25.4 25.4z m0-152.3H361.1c-14 0-25.4-11.4-25.4-25.4 0-14 11.4-25.4 25.4-25.4h304.6c14 0 25.4 11.4 25.4 25.4 0 14-11.4 25.4-25.4 25.4z m0-152.3H361.1c-14 0-25.4-11.4-25.4-25.4 0-14 11.4-25.4 25.4-25.4h304.6c14 0 25.4 11.4 25.4 25.4 0 14-11.4 25.4-25.4 25.4z" p-id="2256"></path></svg>